<svg xmlns="http://www.w3.org/2000/svg" xml:space="preserve" width="306" height="344.4" viewBox="0 0 306 344.4">
  <path fill="#004482" d="M302 258q4-6 4-13V99q0-6-4-13l-149 86z"/>
  <path fill="#004482" d="m166 341 127-73q5-3 9-10l-149-86L4 258q4 7 9 10l127 73c7 4 19 4 26 0"/>
  <path fill="#004482" d="M302 86q-4-6-9-10L166 3c-7-4-19-4-26 0L13 76C6 80 0 91 0 99v146q0 6 4 13l149-86z"/>
  <path fill="#fff" d="M153 274a102 102 0 1 1 88-153l-44 26q-15-25-44-26a51 51 0 1 0 44 77l44 25c-18 32-52 51-88 51"/>
  <path fill="#fff" d="M255 167h-11v-12h-12v12h-11v11h11v11h12v-11h11zM298 167h-12v-12h-11v12h-11v11h11v11h11v-11h12z"/>
</svg>