<svg xmlns="http://www.w3.org/2000/svg" viewBox="0 0 640 512">
<!--! Font Awesome Free 7.1.0 by @fontawesome - https://fontawesome.com License - https://fontawesome.com/license/free (Icons: CC BY 4.0, Fonts: SIL OFL 1.1, Code: MIT License) Copyright 2025 Fonticons, Inc.-->
  <path fill="#29BEB0" d="m400 195-29 7-23 7h-1c-4 1-4 1-8-4q-6-7-15-11-30-14-56 4a66 66 0 0 0-32 59c0 25 17 46 41 49q33 4 54-20l6-9 2-3h-60q-9-1-6-9l16-34q1-4 7-6h101q7-20 22-40 32-43 87-52 48-9 89 16 37 25 44 70 8 62-37 105-30 31-74 40l-16 2-9 1q-42-1-76-27a98 98 0 0 1-31-49q-5 11-14 21-33 45-88 53-46 7-84-20a98 98 0 0 1-39-70q-5-52 26-91 34-43 87-54a104 104 0 0 1 119 59q3 4-3 6m-352 5-1-1 7-9 3-1h112l1 2-6 8-3 2zM1 229l-1-2 7-8 3-2 142 1 2 1-3 8-2 2zm75 27q-2 2 1 2h68l2-2v-8l-1-2H83l-3 2zm501-18v-7c-6-31-34-48-64-41q-44 9-55 54c-5 24 7 49 29 59q26 10 51-2 37-20 39-60z"/>
</svg>