<svg xmlns="http://www.w3.org/2000/svg" viewBox="0 0 128 128">
  <g transform="translate(0, -8)">
  <path fill="#ec670f" d="m65 115-1-3-2-3-2-4-4-12-4-5-5-3q-6 2-8 9l-4 6-2 6-4 6-1 6 7-1c7 1 5 3 15 3l16-1zm0 0"/>
  <path fill="#ec670f" d="M112 8H16Q1 9 0 24v36l7-7 3-7q1-6 7-6 3-1 4 2l4 6 3 5 2 1 2-1 1-3 2-5 3-4 4-2q4 1 5 3l4 5 2 5 2 4 2 4 5 4 5 2h6q3-1 4-4l1-6v-3l2-2q3-4 9-3 2 1 6 1l7 1 5 3q3 3 1 5v1q-1 2-3 1h-4q-4 1-7 3-2 2-3 6s-2 6-7 9q-1 2-9 4l-7 1-3-1-3 1h-1l1 1v5l1 6 2 6 1 2 1 3q0 7 3 13l8-2h19c13-2 20 5 31 2V24q-1-15-16-16M64 84"/>
  <path fill="#ec670f" d="m30 99 2-6q0-4 3-6h-5l-3-1-6-1-6-2q-2-3-5-4l-3 2-1 3-1 3-5 6v23l3 1c9 2 12 2 20 1h1l2-7 1-4v-3q0-2 3-5m0 0"/>
  </g>
</svg>