<svg xmlns="http://www.w3.org/2000/svg" viewBox="10 0 550 390">
  <g clip-path="url(#c)" transform="matrix(1 0 0 -1 -4 394)">
    <path fill="#777bb3" d="M288 27c147 0 266 60 266 135 0 74-119 134-266 134S22 236 22 162C22 87 141 27 288 27"/>
  </g>
  <g clip-path="url(#d)" transform="matrix(1 0 0 -1 -4 394)">
    <path fill="#fff" d="M162 145q18 0 27 7 8 6 11 22 4 15-2 20-5 6-22 6h-19l-11-55zM99 77a3 3 0 0 0-3 4l28 146 3 2h61q30 0 43-15 14-16 8-43a69 69 0 0 0-21-38q-10-9-22-13t-31-4h-24l-7-36-3-3zM312 116a3 3 0 0 0-3 4l13 64q1 10-1 12 0 3-14 4h-23l-15-82-3-2h-32a3 3 0 0 0-3 4l29 145q0 3 3 3h31a3 3 0 0 0 3-4l-7-35h25q27 0 38-10 12-10 7-33l-13-68-3-2zM410 145q18 0 27 7 8 6 11 22 4 15-2 20-5 6-22 6h-19l-11-55zm-63-68a3 3 0 0 0-3 4l28 146 3 2h61q30 0 43-15 14-16 8-43a69 69 0 0 0-21-38q-10-9-22-13t-31-4h-24l-7-36-3-3z"/>
  </g>
</svg>