<svg xmlns="http://www.w3.org/2000/svg" viewBox="0 0 512 512">
<!--! Font Awesome Free 7.1.0 by @fontawesome - https://fontawesome.com License - https://fontawesome.com/license/free (Icons: CC BY 4.0, Fonts: SIL OFL 1.1, Code: MIT License) Copyright 2025 Fonticons, Inc.-->
  <path fill="#673BB7" d="m418 177-16-5 3-11c12-60 4-107-24-123-26-15-69 0-112 38l-13 12-8-8c-46-41-91-58-118-42s-34 61-23 117l3 17-18 6c-54 18-92 47-92 78s41 62 96 81l14 4-4 18c-11 56-2 100 24 115 27 16 72 0 116-39l11-10 13 13c43 36 86 51 112 36 27-15 35-63 24-120l-3-14 9-3c58-19 100-50 100-81s-39-60-94-79M283 92c37-32 72-45 88-36 16 10 23 49 12 101l-2 10q-33-8-67-11-19-28-43-53zM167 308l16 25q-24-2-46-7 6-22 16-45zm-30-121 46-8-30 52q-9-23-16-44m27 69a628 628 0 0 1 46-79 627 627 0 0 1 92 0 699 699 0 0 1 46 79 664 664 0 0 1-46 80 629 629 0 0 1-92 0 608 608 0 0 1-46-80m181 51 14-26q11 21 17 44l-47 8zm14-76-30-52 46 8q-6 23-16 44M256 118l30 36h-60zM140 57c17-10 54 4 94 39l7 7q-23 26-43 53-33 3-67 10l-3-15c-10-48-4-85 12-94m-24 264a255 255 0 0 1-76-35q-15-11-19-30c0-19 32-42 78-58l17-5q10 32 25 63-15 32-25 65m116 98q-24 23-56 35-17 8-35 1c-16-9-23-44-14-92l4-16q33 7 68 9 19 28 43 54zm25-25q-16-16-30-36h59q-14 19-29 36m131 30q-2 20-17 32c-16 9-50-3-86-35l-13-11q22-26 42-54 35-3 68-10l3 12q8 33 3 66m18-107-9 2q-10-32-25-63l24-63 15 4c47 16 79 40 79 58 1 20-34 45-84 62m-150-15a46 46 0 1 0 0-92 46 46 0 1 0 0 92"/>
</svg>