<svg xmlns="http://www.w3.org/2000/svg" viewBox="0 0 512 512">
<!--! Font Awesome Free 7.1.0 by @fontawesome - https://fontawesome.com License - https://fontawesome.com/license/free (Icons: CC BY 4.0, Fonts: SIL OFL 1.1, Code: MIT License) Copyright 2025 Fonticons, Inc.-->
  <path fill="#CE422B" d="m509 250-22-14-1-6 19-17 2-3v-4l-2-3q-1-2-3-2l-24-9-1-6 15-21 1-3v-4l-3-3-3-1-25-4-3-6 11-23-1-7-3-3h-3l-26 1-4-5 6-25v-4l-2-3-3-2h-4l-25 6-4-4 1-25-1-4-3-3-3-1-4 1-23 10-5-2-5-26-4-5-4-1-3 1-21 15-6-1-9-24q0-3-2-3-2-1-3-2h-4l-3 2-17 19-6-1-14-21q0-2-2-3l-4-1-4 1q-2 1-2 3l-14 21-6 1-17-19-3-2h-4l-3 1-2 3-9 25-6 1-21-15-3-1h-4l-3 3-1 3-4 25-6 3-23-10h-7l-3 3-1 4 1 25-4 4-25-6h-4l-3 2-2 3v4l6 25-4 4H46l-3 3-1 3 1 4 10 23-2 5-26 4-5 5-1 4 1 3 15 21-1 5-24 9-3 3-2 3v4q0 2 2 3l19 17-1 6-21 14-3 3-1 3 1 4q1 2 3 2l21 14 1 6-19 17-2 3v4l1 3 3 2 25 9 1 6-15 21-1 3v4l3 3 3 1 25 4 3 6-10 23v7l3 3 4 1 25-1 4 4-6 25v4l2 3 3 2h4l25-6 5 4-1 26a7 7 0 0 0 6 7h4l23-11 6 3 4 25a7 7 0 0 0 4 6l7-1 21-15 6 1 9 24q0 3 2 3 2 1 3 2h4l3-2 17-19 6 1 14 22 2 2 4 1 4-1 2-2 14-22 6-1 17 19 3 2h4l3-2q2-1 2-3l9-24 6-1 21 15 3 1h4l3-3 1-3 4-25 6-3 23 11 7-1 3-3v-3l-1-26 5-4 25 6h4l3-2 2-3v-4l-6-25 4-4 26 1 3-1 3-3 1-3v-4l-11-23 3-5 25-5a7 7 0 0 0 6-4l-1-7-15-21 1-5 24-9 3-3 2-3v-4q0-2-2-3l-19-17 1-6 22-14 2-2 1-4-1-4zM358 379q-6-1-11 2s-5 5-6 9l-8 35a189 189 0 0 1-156 0l-8-36-2-5-4-4-5-2h-5l-32 7-16-19h153q3 1 3-2v-54q0-2-3-2h-44v-35h48c4 0 24 2 30 26 2 8 6 32 9 40 3 9 15 27 27 27h79l-17 20zm25 34-2 9-7 5q-3 4-9 1l-8-4-4-8q-1-5 1-8 2-5 5-7l9-3q6 0 11 5 6 6 4 10m-225 0q0 5-3 8l-7 6q-4 3-8 1-5-2-8-5-4-3-5-7-1-5 1-9 2-5 6-7 5-3 8-3h1q6 1 10 5 5 6 5 11zM70 234l32-14 5-4 3-4 1-5-2-6-6-15h26v120H76q-10-35-6-72m-12-36 1-6 4-5 5-3 6-1q5 0 8 3 4 3 6 7 2 5 0 8l-4 8q-3 3-8 4-6 1-8-1l-7-5q-3-4-3-9zm156 25v-36h63c3 0 23 4 23 19 0 12-15 17-28 17zm185 84c-10 1-21-4-22-10-6-33-15-40-31-52 19-12 39-29 39-53 0-26-18-42-30-50a84 84 0 0 0-40-13H116q44-47 105-59l24 25 4 3 5 1 6-1 4-3 27-25a187 187 0 0 1 128 92l-18 40a14 14 0 0 0 7 18l35 16v32h-19q-3 1-3 3v9c0 21-12 25-22 27zM240 60q0-6 5-11 6-6 10-4h1q4 0 8 3s4 4 5 7q4 4 1 8l-4 8q-3 4-8 4l-9-1-7-5q-3-4-2-9zm197 154-6-1-5-3q-2-2-3-5a15 15 0 0 1 3-17l5-3 6-1q6 0 11 4 6 6 4 11l-4 11q-4 4-11 4"/>
</svg>