<svg xmlns="http://www.w3.org/2000/svg" xml:space="preserve" viewBox="0 0 98.1 118">
  <path d="M92 16A36 36 0 0 0 44 5L16 23Q5 30 2 44 1 55 5 65q-3 6-4 12-3 14 5 25c11 16 33 21 48 11l28-18q12-7 14-21 1-11-3-21l5-12q2-14-6-25" style="fill:#ff3e00"/>
  <path d="M41 104q-15 3-23-9-6-7-4-15l1-3v-1l1 1 11 5h1v1l1 5a7 7 0 0 0 9 2l28-18 2-4-1-4a7 7 0 0 0-9-2l-10 6-6 3q-14 3-23-9-5-7-4-15 2-8 9-13l27-17 6-3q15-3 23 9a20 20 0 0 1 3 18v1l-2-1-10-5h-1v-1l-1-4a7 7 0 0 0-9-2L32 46l-2 4 1 4a7 7 0 0 0 9 2l10-6 6-3q15-3 23 9 4 7 4 15-2 8-9 13l-27 17z" style="fill:#fff"/>
</svg>